<svg width="85" height="71" viewBox="0 0 85 71" fill="none" xmlns="http://www.w3.org/2000/svg">
<path d="M56.4184 49.4046L42.4452 35.4314L28.4719 49.4046" stroke="#3D5AFE" stroke-width="7" stroke-linecap="round" stroke-linejoin="round"/>
<path d="M42.4453 35.4314V66.8712" stroke="#3D5AFE" stroke-width="7" stroke-linecap="round" stroke-linejoin="round"/>
<path d="M71.754 57.7535C75.1611 55.896 77.8527 52.9568 79.4039 49.3997C80.955 45.8426 81.2775 41.8702 80.3203 38.1095C79.3631 34.3488 77.1808 31.014 74.1178 28.6313C71.0548 26.2486 67.2855 24.9539 63.4049 24.9513H59.0034C57.946 20.8615 55.9752 17.0646 53.2392 13.846C50.5032 10.6275 47.0732 8.07108 43.207 6.36899C39.3407 4.6669 35.139 3.86342 30.9175 4.01895C26.6961 4.17449 22.5649 5.28499 18.8344 7.26697C15.1039 9.24896 11.8713 12.0508 9.37954 15.462C6.8878 18.8731 5.20177 22.8048 4.44823 26.9613C3.69469 31.1179 3.89323 35.3912 5.02894 39.4599C6.16464 43.5287 8.20795 47.2871 11.0053 50.4525" stroke="#3D5AFE" stroke-width="7" stroke-linecap="round" stroke-linejoin="round"/>
<path d="M56.4184 49.4046L42.4452 35.4314L28.4719 49.4046" stroke="#3D5AFE" stroke-width="7" stroke-linecap="round" stroke-linejoin="round"/>
</svg>
