<svg width="78" height="64" viewBox="0 0 78 64" fill="none" xmlns="http://www.w3.org/2000/svg">
<path d="M73.8663 31.9465H4" stroke="#3D5AFE" stroke-width="7" stroke-linecap="round" stroke-linejoin="round"/>
<path d="M16.0519 7.87758L4 31.9465V52.9064C4 54.7594 4.73609 56.5364 6.04634 57.8467C7.35658 59.1569 9.13366 59.893 10.9866 59.893H66.8796C68.7326 59.893 70.5097 59.1569 71.8199 57.8467C73.1302 56.5364 73.8663 54.7594 73.8663 52.9064V31.9465L61.8143 7.87758C61.2359 6.71356 60.3443 5.73398 59.2396 5.04897C58.135 4.36396 56.8611 4.00069 55.5613 4H22.305C21.0052 4.00069 19.7313 4.36396 18.6267 5.04897C17.522 5.73398 16.6303 6.71356 16.0519 7.87758V7.87758Z" stroke="#3D5AFE" stroke-width="7" stroke-linecap="round" stroke-linejoin="round"/>
<path d="M17.9733 45.9197H18.0087" stroke="#3D5AFE" stroke-width="7" stroke-linecap="round" stroke-linejoin="round"/>
<path d="M31.9465 45.9197H31.982" stroke="#3D5AFE" stroke-width="7" stroke-linecap="round" stroke-linejoin="round"/>
</svg>
