<svg width="20" height="19" viewBox="0 0 20 19" fill="none" xmlns="http://www.w3.org/2000/svg">
<path d="M14 6C15.5913 6 17.1174 6.63214 18.2426 7.75736C19.3679 8.88258 20 10.4087 20 12V19H16V12C16 11.4696 15.7893 10.9609 15.4142 10.5858C15.0391 10.2107 14.5304 10 14 10C13.4696 10 12.9609 10.2107 12.5858 10.5858C12.2107 10.9609 12 11.4696 12 12V19H8V12C8 10.4087 8.63214 8.88258 9.75736 7.75736C10.8826 6.63214 12.4087 6 14 6Z" fill="white"/>
<path d="M4 7H0V19H4V7Z" fill="white"/>
<path d="M2 4C3.10457 4 4 3.10457 4 2C4 0.89543 3.10457 0 2 0C0.89543 0 0 0.89543 0 2C0 3.10457 0.89543 4 2 4Z" fill="white"/>
</svg>
