<svg width="124" height="58" viewBox="0 0 124 58" fill="none" xmlns="http://www.w3.org/2000/svg">
<path d="M19.6875 34.8523V19.8182H26.9489V46H19.9773V41.2443H19.7045C19.1136 42.7784 18.1307 44.0114 16.7557 44.9432C15.392 45.875 13.7273 46.3409 11.7614 46.3409C10.0114 46.3409 8.47159 45.9432 7.14205 45.1477C5.8125 44.3523 4.77273 43.2216 4.02273 41.7557C3.28409 40.2898 2.90909 38.5341 2.89773 36.4886V19.8182H10.1591V35.1932C10.1705 36.7386 10.5852 37.9602 11.4034 38.858C12.2216 39.7557 13.3182 40.2045 14.6932 40.2045C15.5682 40.2045 16.3864 40.0057 17.1477 39.608C17.9091 39.1989 18.5227 38.5966 18.9886 37.8011C19.4659 37.0057 19.6989 36.0227 19.6875 34.8523ZM32.7571 46V19.8182H39.7969V24.3864H40.0696C40.5469 22.7614 41.348 21.5341 42.473 20.7045C43.598 19.8636 44.8935 19.4432 46.3594 19.4432C46.723 19.4432 47.1151 19.4659 47.5355 19.5114C47.956 19.5568 48.3253 19.6193 48.6435 19.6989V26.142C48.3026 26.0398 47.831 25.9489 47.2287 25.8693C46.6264 25.7898 46.0753 25.75 45.5753 25.75C44.5071 25.75 43.5526 25.983 42.7116 26.4489C41.8821 26.9034 41.223 27.5398 40.7344 28.358C40.2571 29.1761 40.0185 30.1193 40.0185 31.1875V46H32.7571ZM59.6591 30.8636V46H52.3977V11.0909H59.4545V24.4375H59.7614C60.3523 22.892 61.3068 21.6818 62.625 20.8068C63.9432 19.9205 65.5966 19.4773 67.5852 19.4773C69.4034 19.4773 70.9886 19.875 72.3409 20.6705C73.7045 21.4545 74.7614 22.5852 75.5114 24.0625C76.2727 25.5284 76.6477 27.2841 76.6364 29.3295V46H69.375V30.625C69.3864 29.0114 68.9773 27.7557 68.1477 26.858C67.3295 25.9602 66.1818 25.5114 64.7045 25.5114C63.7159 25.5114 62.8409 25.7216 62.0795 26.142C61.3295 26.5625 60.7386 27.1761 60.3068 27.983C59.8864 28.7784 59.6705 29.7386 59.6591 30.8636ZM94.1804 46.5114C91.5327 46.5114 89.2429 45.9489 87.3111 44.8239C85.3906 43.6875 83.9077 42.108 82.8622 40.0852C81.8168 38.0511 81.294 35.6932 81.294 33.0114C81.294 30.3068 81.8168 27.9432 82.8622 25.9205C83.9077 23.8864 85.3906 22.3068 87.3111 21.1818C89.2429 20.0455 91.5327 19.4773 94.1804 19.4773C96.8281 19.4773 99.1122 20.0455 101.033 21.1818C102.964 22.3068 104.453 23.8864 105.499 25.9205C106.544 27.9432 107.067 30.3068 107.067 33.0114C107.067 35.6932 106.544 38.0511 105.499 40.0852C104.453 42.108 102.964 43.6875 101.033 44.8239C99.1122 45.9489 96.8281 46.5114 94.1804 46.5114ZM94.2145 40.8864C95.419 40.8864 96.4247 40.5455 97.2315 39.8636C98.0384 39.1705 98.6463 38.2273 99.0554 37.0341C99.4759 35.8409 99.6861 34.483 99.6861 32.9602C99.6861 31.4375 99.4759 30.0795 99.0554 28.8864C98.6463 27.6932 98.0384 26.75 97.2315 26.0568C96.4247 25.3636 95.419 25.017 94.2145 25.017C92.9986 25.017 91.9759 25.3636 91.1463 26.0568C90.3281 26.75 89.7088 27.6932 89.2884 28.8864C88.8793 30.0795 88.6747 31.4375 88.6747 32.9602C88.6747 34.483 88.8793 35.8409 89.2884 37.0341C89.7088 38.2273 90.3281 39.1705 91.1463 39.8636C91.9759 40.5455 92.9986 40.8864 94.2145 40.8864ZM116.033 46.4432C114.908 46.4432 113.942 46.0455 113.135 45.25C112.339 44.4432 111.942 43.4773 111.942 42.3523C111.942 41.2386 112.339 40.2841 113.135 39.4886C113.942 38.6932 114.908 38.2955 116.033 38.2955C117.124 38.2955 118.078 38.6932 118.896 39.4886C119.714 40.2841 120.124 41.2386 120.124 42.3523C120.124 43.1023 119.93 43.7898 119.544 44.4148C119.169 45.0284 118.675 45.5227 118.061 45.8977C117.447 46.2614 116.771 46.4432 116.033 46.4432Z" fill="white"/>
</svg>
