<svg width="272" height="256" viewBox="0 0 272 256" fill="none" xmlns="http://www.w3.org/2000/svg">
<circle r="5.44681" transform="matrix(-1 0 0 1 136.17 5.44681)" fill="#20DABD"/>
<circle r="5.44681" transform="matrix(-1 0 0 1 136.17 54.4683)" fill="#20DABD"/>
<circle r="5.44681" transform="matrix(-1 0 0 1 188.46 54.4683)" fill="#20DABD"/>
<circle r="5.44681" transform="matrix(-1 0 0 1 83.8808 54.4683)" fill="#20DABD"/>
<circle r="5.44681" transform="matrix(-1 0 0 1 110.025 30.502)" fill="#20DABD"/>
<circle r="5.44681" transform="matrix(-1 0 0 1 162.315 30.502)" fill="#20DABD"/>
<circle r="5.44681" transform="matrix(-1 0 0 1 136.17 103.489)" fill="#20DABD"/>
<circle r="5.44681" transform="matrix(-1 0 0 1 188.46 103.489)" fill="#20DABD"/>
<circle r="5.44681" transform="matrix(-1 0 0 1 83.8808 103.489)" fill="#20DABD"/>
<circle r="5.44681" transform="matrix(-1 0 0 1 31.5915 103.489)" fill="#20DABD"/>
<circle r="5.44681" transform="matrix(-1 0 0 1 240.447 103.489)" fill="#20DABD"/>
<circle r="5.44681" transform="matrix(-1 0 0 1 110.025 79.5235)" fill="#20DABD"/>
<circle r="5.44681" transform="matrix(-1 0 0 1 162.315 79.5235)" fill="#20DABD"/>
<circle r="5.44681" transform="matrix(-1 0 0 1 57.7362 79.5235)" fill="#20DABD"/>
<circle r="5.44681" transform="matrix(-1 0 0 1 214.447 79.5235)" fill="#20DABD"/>
<circle r="5.44681" transform="matrix(-1 0 0 1 136.17 152.511)" fill="#20DABD"/>
<circle r="5.44681" transform="matrix(-1 0 0 1 188.46 152.511)" fill="#20DABD"/>
<circle r="5.44681" transform="matrix(-1 0 0 1 83.8808 152.511)" fill="#20DABD"/>
<circle r="5.44681" transform="matrix(-1 0 0 1 31.5915 152.511)" fill="#20DABD"/>
<circle r="5.44681" transform="matrix(-1 0 0 1 240.447 152.511)" fill="#20DABD"/>
<circle r="5.44681" transform="matrix(-1 0 0 1 110.025 128.544)" fill="#20DABD"/>
<circle r="5.44681" transform="matrix(-1 0 0 1 162.315 128.544)" fill="#20DABD"/>
<circle r="5.44681" transform="matrix(-1 0 0 1 57.7362 128.544)" fill="#20DABD"/>
<circle r="5.44681" transform="matrix(-1 0 0 1 214.447 128.544)" fill="#20DABD"/>
<circle r="5.44681" transform="matrix(-1 0 0 1 5.44675 128.544)" fill="#20DABD"/>
<circle r="5.44681" transform="matrix(-1 0 0 1 266.447 128.544)" fill="#20DABD"/>
<circle r="5.44681" transform="matrix(-1 0 0 1 136.17 201.532)" fill="#20DABD"/>
<circle r="5.44681" transform="matrix(-1 0 0 1 188.46 201.532)" fill="#20DABD"/>
<circle r="5.44681" transform="matrix(-1 0 0 1 83.8808 201.532)" fill="#20DABD"/>
<circle r="5.44681" transform="matrix(-1 0 0 1 110.025 177.566)" fill="#20DABD"/>
<circle r="5.44681" transform="matrix(-1 0 0 1 162.315 177.566)" fill="#20DABD"/>
<circle r="5.44681" transform="matrix(-1 0 0 1 57.7362 177.566)" fill="#20DABD"/>
<circle r="5.44681" transform="matrix(-1 0 0 1 214.447 177.566)" fill="#20DABD"/>
<circle r="5.44681" transform="matrix(-1 0 0 1 136.17 250.553)" fill="#20DABD"/>
<circle r="5.44681" transform="matrix(-1 0 0 1 110.025 226.587)" fill="#20DABD"/>
<circle r="5.44681" transform="matrix(-1 0 0 1 162.315 226.587)" fill="#20DABD"/>
</svg>
