<svg width="31" height="31" viewBox="0 0 31 31" fill="none" xmlns="http://www.w3.org/2000/svg">
<path d="M28.9992 22.2147V26.2793C29.0007 26.6566 28.9233 27.0301 28.7718 27.3758C28.6203 27.7216 28.3982 28.0319 28.1196 28.287C27.841 28.5421 27.5121 28.7363 27.1539 28.8572C26.7958 28.9781 26.4162 29.023 26.0397 28.989C21.8623 28.536 17.8496 27.1114 14.324 24.8296C11.0439 22.7494 8.263 19.974 6.17871 16.7004C3.88441 13.1658 2.45663 9.14161 2.01102 4.95373C1.97709 4.57907 2.02171 4.20146 2.14202 3.84495C2.26234 3.48843 2.45571 3.16083 2.70984 2.88299C2.96397 2.60515 3.27328 2.38316 3.61808 2.23117C3.96288 2.07917 4.33561 2.00049 4.71255 2.00013H8.78521C9.44404 1.99366 10.0827 2.2265 10.5823 2.65525C11.0818 3.084 11.4081 3.67941 11.5003 4.3305C11.6722 5.63125 11.991 6.90843 12.4506 8.13766C12.6332 8.6226 12.6728 9.14963 12.5645 9.6563C12.4562 10.163 12.2047 10.628 11.8397 10.9964L10.1156 12.7171C12.0482 16.1091 14.8622 18.9176 18.2609 20.8463L19.985 19.1256C20.3541 18.7613 20.8201 18.5103 21.3278 18.4022C21.8355 18.2942 22.3635 18.3336 22.8494 18.5159C24.0811 18.9746 25.3608 19.2928 26.6642 19.4643C27.3236 19.5572 27.9259 19.8887 28.3564 20.3958C28.7869 20.9029 29.0157 21.5502 28.9992 22.2147Z" stroke="#9E9E9E" stroke-width="3" stroke-linecap="round" stroke-linejoin="round"/>
</svg>
