<svg width="141" height="141" viewBox="0 0 141 141" fill="none" xmlns="http://www.w3.org/2000/svg">
<path d="M2 65.5L66 1.5" stroke="#20DABD" stroke-width="3" stroke-linecap="round"/>
<path d="M2 76L76.5 1.5" stroke="#20DABD" stroke-width="3" stroke-linecap="round"/>
<path d="M2 90L87 5" stroke="#20DABD" stroke-width="3" stroke-linecap="round"/>
<path d="M10 35.5L32.5 13" stroke="#20DABD" stroke-width="3" stroke-linecap="round"/>
<path d="M2 54.5L51.5 5" stroke="#20DABD" stroke-width="3" stroke-linecap="round"/>
<path d="M5 99L96.5 7.5" stroke="#20DABD" stroke-width="3" stroke-linecap="round"/>
<path d="M10.5 106.5L104 13" stroke="#20DABD" stroke-width="3" stroke-linecap="round"/>
<path d="M16 115L113 18" stroke="#20DABD" stroke-width="3" stroke-linecap="round"/>
<path d="M21 121L118 24" stroke="#20DABD" stroke-width="3" stroke-linecap="round"/>
<path d="M26.5 126.5L123.5 29.5" stroke="#20DABD" stroke-width="3" stroke-linecap="round"/>
<path d="M35 132.5L129.5 38" stroke="#20DABD" stroke-width="3" stroke-linecap="round"/>
<path d="M43.5 134.5L132 46" stroke="#20DABD" stroke-width="3" stroke-linecap="round"/>
<path d="M51.5 136.5L134 54" stroke="#20DABD" stroke-width="3" stroke-linecap="round"/>
<path d="M62.5 139.5L137 65" stroke="#20DABD" stroke-width="3" stroke-linecap="round"/>
<path d="M74 139.5L139.5 74" stroke="#20DABD" stroke-width="3" stroke-linecap="round"/>
<path d="M87 137.5L137 87.5" stroke="#20DABD" stroke-width="3" stroke-linecap="round"/>
<path d="M109.5 129.5L129 110" stroke="#20DABD" stroke-width="3" stroke-linecap="round"/>
</svg>
